<svg xmlns="http://www.w3.org/2000/svg" viewBox="0 0 401.52874 126.89199"><defs><style>.cls-1{fill:#009edb;}</style></defs><g id="Layer_2" data-name="Layer 2"><g id="Emblem"><path id="emblem-2" data-name="emblem" class="cls-1" d="M121.03,115.40336c.07087-.01592.1681.06185.20342.10259a22.36042,22.36042,0,0,1-9.725,5.75054,19.69138,19.69138,0,0,1-7.67869.54657,24.65986,24.65986,0,0,1-10.86246-4.2364c-1.98647-1.30546-3.95161-2.64266-5.9168-3.98a9.75378,9.75378,0,0,0-7.369-1.39027c-1.42038.15389-.34315.83667-.12559.94451a57.98306,57.98306,0,0,1,9.93393,6.18042c2.10487,1.54416,5.8602,5.16505,5.8602,5.16505l-2.809,2.40558s-2.14385-2.402-3.07775-3.336a52.30535,52.30535,0,0,0-12.82958-9.93735.9543.9543,0,0,0-1.26291,0,52.33488,52.33488,0,0,0-12.83129,9.93735c-.93219.934-3.07593,3.33605-3.07593,3.33605l-2.81081-2.40558s3.75709-3.62089,5.862-5.16505a57.97973,57.97973,0,0,1,9.93381-6.18042c.21762-.10784,1.2948-.79062-.12554-.94451a9.75347,9.75347,0,0,0-7.369,1.39027c-1.96531,1.3373-3.93216,2.6745-5.91864,3.98a24.64278,24.64278,0,0,1-10.86245,4.2364,19.6845,19.6845,0,0,1-7.67687-.54657,22.417,22.417,0,0,1-9.73393-5.76292.28083.28083,0,0,1,.21221-.09021c.23526.10431.38025.1786.60848.29717a19.35191,19.35191,0,0,0,12.90554,1.50523,43.022,43.022,0,0,0,8.701-3.01406c2.02892-.865,4.03292-1.81838,6.122-2.50823a28.81167,28.81167,0,0,1,16.4114-.36969,2.04208,2.04208,0,0,0,.27947.04947,2.08925,2.08925,0,0,0,.27948-.04947,28.81185,28.81185,0,0,1,16.41145.36969c2.089.68985,4.09307,1.64326,6.12189,2.50823a42.98428,42.98428,0,0,0,8.70108,3.01406,19.35194,19.35194,0,0,0,12.90554-1.50523C120.64972,115.582,120.79482,115.50767,121.03,115.40336Zm12.99757-11.8a17.652,17.652,0,0,1-5.82841,3.07957,33.61042,33.61042,0,0,1-9.17326,1.37262,109.33187,109.33187,0,0,0-11.968,1.0365l-.06368.01072c-.25123.04063-.36615-.0655-.28484-.15218a.20183.20183,0,0,1,.06014-.04068c3.56429-1.30541,5.98584-4.07018,7.80953-7.54061,1.263-2.40387,3.33075-7.10022,3.90562-7.86785a.31261.31261,0,0,0-.03891-.2017c-.27064.08849-4.19389,3.42808-5.97513,5.082-2.20934,2.05358-4.28957,4.247-6.50058,6.30065-3.45456,3.2989-8.4215,4.74759-10.22036,5.21457a.40153.40153,0,0,0-.14156.06362.60614.60614,0,0,0-.09022.16279.01634.01634,0,0,0,.0141.023l.08142.01945c1.39563.31834,5.42689,1.19392,7.49468,1.74586a51.12016,51.12016,0,0,0,9.66317,1.79886,23.23594,23.23594,0,0,0,21.51984-10.06824c.00708-.01067.0141-.0283.00708-.03184A.3317.3317,0,0,0,134.02753,103.60336Zm12.14853-18.626a31.19876,31.19876,0,0,1-6.96585,6.07771,44.35986,44.35986,0,0,1-7.15489,3.90038,38.00519,38.00519,0,0,0-8.78776,5.1615c-.1786.14682-.32718.2582-.50761.39086-.09723.07076-.1928-.04952-.08667-.17329.13443-.15571,4.18864-4.3071,5.40738-13.10541.42447-3.07073.48461-6.38732,1.48047-9.34661a.29733.29733,0,0,0-.06185-.24057c-.00537-.00707-.0319.01062-.03715.01769a40.63458,40.63458,0,0,0-6.6155,12.01934c-.819,2.34544-1.60081,4.70332-2.448,7.03826a22.38347,22.38347,0,0,1-5.089,8.55234c-.03533.03714-.2194.23-.2194.23a.45024.45024,0,0,0-.04063.1451c0,.00884.01239.02653.01946.02471.34852-.06014.57665-.09375.80135-.14145,2.71341-.56078,5.41091-1.20995,8.14014-1.66449a26.64129,26.64129,0,0,0,12.22276-5.20219,29.03265,29.03265,0,0,0,8.84254-10.34607,19.5017,19.5017,0,0,0,1.35311-3.37137A.28548.28548,0,0,0,146.17606,84.97736Zm5.3207-20.93612c-1.171,3.734-3.28835,6.757-6.37682,10.00816-2.4215,2.49933-7.08242,7.22575-9.23506,10.50338-.06019.092-.22121.05135-.16107-.11492a27.25523,27.25523,0,0,0,.85794-11.81062c-.53065-3.336-1.99172-6.9764-2.35262-11.05891-.00354-.01945.00182-.023-.00525-.04245-.02129-.053-.1115-.17688-.17164-.18214a3.10881,3.10881,0,0,0-.13791.38738,36.7733,36.7733,0,0,0-1.72109,8.10311c-.17689,3.329.451,7.60954.17688,11.0358-.31845,3.95869-.589,7.87493-2.40387,11.46575a.55319.55319,0,0,0-.02122.05831c-.03709.09558.06367.27246.06367.27246a.0776.0776,0,0,0,.023-.0089c1.45576-.92859,5.60372-3.37491,8.33836-5.20036a32.2355,32.2355,0,0,0,8.79467-8.39856A25.13682,25.13682,0,0,0,151.739,64.44454a3.55487,3.55487,0,0,0-.03532-.52712C151.66474,63.9015,151.50555,64.01471,151.49676,64.04124Zm-8.79832,2.25352a.11368.11368,0,0,1-.069.07606c-.08485.02476-.12553-.07789-.12376-.10088a18.47382,18.47382,0,0,0,.069-3.35723c-.28484-3.911-2.64443-7.14969-4.714-10.40443a49.71229,49.71229,0,0,1-3.74642-6.665c-.00708-.01763-.16445-.11674-.21226-.09546a21.76835,21.76835,0,0,0,.12912,2.24638c.58018,5.59847,2.36319,11.08008,4.2081,16.39377a22.75319,22.75319,0,0,1,1.47168,10.36541c-.04063.31308-.05135.34669.0796.44226.00525.00354.01233-.0089.01586-.00353,1.26119-1.82021,3.71818-4.37437,5.2305-6.21751,1.63978-1.99532,9.89848-11.40909,5.83013-24.52512a9.32186,9.32186,0,0,0-.64027-1.6238c-.06368.00176-.17336.16455-.18579.2069.02482,9.4351-4.53881,13.48582-6.44386,19.94031C143.2344,64.20215,142.94785,65.34312,142.69844,66.29476ZM135.58589,36.969a30.52887,30.52887,0,0,1-5.02707-5.60024.16366.16366,0,0,0-.03007-.03709.25922.25922,0,0,0-.05661-.04422.29086.29086,0,0,0-.214-.04245c-.06014-.01061-.10967-.00708-.10613.00707.08131.39269,1.37965,4.5548,2.21814,6.4934a37.76157,37.76157,0,0,0,4.98108,7.553c.13084.17506.26351.34841.39451.52535,1.83065,2.46047,4.75816,7.70329,5.464,10.39371.01935.07611.18208.14681.18916.115.25648-.96054,1.4399-4.691,2.31719-7.20989A70.12215,70.12215,0,0,0,147.7662,41.354c.88614-6.2069-1.16031-14.26053-4.78292-18.66143-.06014.02128-.11149.18225-.10093.21762.06732.207.115.36616.17517.57311.07959.27058.15566.543.21933.82069a25.685,25.685,0,0,1,.16451,10.3354,44.53781,44.53781,0,0,0-.75889,8.21985c.02305.46172.30606,3.865.26355,3.99412-.0477.15206-.18567.03532-.20159-.04428-.00536-.02471-.44575-1.26467-.888-2.303-.184-.45111-.36969-.8774-.52541-1.18513C139.87712,40.43416,137.99683,38.93594,135.58589,36.969Zm-3.99583-25.12835a11.83829,11.83829,0,0,1,2.69749,3.88617c.99941,2.34372,1.293,5.86739,1.93867,8.533.39445,1.61844.63673,2.76466,1.20458,4.60249.05124.161-.11674.23531-.2017.08142a.72994.72994,0,0,0-.04417-.06014c-1.8679-2.53122-4.1851-4.11086-7.4876-6.19457a17.26985,17.26985,0,0,1-4.87666-4.37962c-.24587-.33077-.49882-.65453-.74823-.97994a.35475.35475,0,0,0-.21757-.06191,2.55961,2.55961,0,0,0,.05661.40861,17.58734,17.58734,0,0,0,4.28946,8.39844c1.75641,1.67693,3.73045,3.1663,5.60543,4.71758a47.4195,47.4195,0,0,1,6.5678,6.81892l.03538.03892s.15035.09546.14681.0424c-.00177-.01233-.00177-.02825-.00354-.04069l.00354-.00348c-.046-.49-.06362-1.26832-.06362-2.18807.00171-2.04833.09369-4.78828.1839-6.67387.03533-.76238.06186-1.52829.05832-2.29243A16.25039,16.25039,0,0,0,139.518,19.8093a15.552,15.552,0,0,0-7.32481-8.00222,3.631,3.631,0,0,0-.64564-.24593.37139.37139,0,0,0,.01764.2477A.06271.06271,0,0,0,131.59006,11.84063ZM117.2659,5.227a32.25045,32.25045,0,0,1,5.112,6.09187,29.5831,29.5831,0,0,0,4.8272,5.95926c1.2948,1.30723,5.06422,4.23645,6.007,4.967a.19662.19662,0,0,0,.04069.03184.14035.14035,0,0,0,.0796-.00531s-.00526-.02653-.00708-.04251c-.19817-1.08248-1.90151-9.02291-6.872-12.95324a24.89168,24.89168,0,0,0-9.66505-4.67507c-.03527.06539.00354.237.02482.23349C116.97941,4.97926,117.09963,5.08014,117.2659,5.227ZM39.21006,113.71051a51.12225,51.12225,0,0,0,9.66323-1.79886c2.06779-.55194,6.099-1.42752,7.49462-1.74586l.08131-.01945a.01634.01634,0,0,0,.01426-.023.61025.61025,0,0,0-.09032-.16279.39614.39614,0,0,0-.14328-.06362c-1.79709-.46527-6.764-1.91567-10.21865-5.21457-2.21106-2.05364-4.29112-4.24707-6.50047-6.30065-1.78123-1.65388-5.70454-4.99347-5.97512-5.08368a.31861.31861,0,0,0-.039.20342c.57482.76763,2.64272,5.464,3.90562,7.86785,1.82374,3.47043,4.24524,6.2352,7.80942,7.54061a.199.199,0,0,1,.06014.04068c.08143.08668-.03355.19281-.28473.15218l-.06367-.01072a109.3321,109.3321,0,0,0-11.96805-1.0365,33.61162,33.61162,0,0,1-9.17326-1.37262,17.6508,17.6508,0,0,1-5.82836-3.07957.33243.33243,0,0,0-.27069.00707c-.00708.00354,0,.02117.00719.03184a24.85988,24.85988,0,0,0,11.07825,8.70805A24.797,24.797,0,0,0,39.21006,113.71051Zm-3.099-8.18264c.22459.0477.45283.08131.80129.14145.00708.00182.01951-.01587.01951-.02653a.45075.45075,0,0,0-.04079-.14328s-.18391-.19281-.221-.23a22.43413,22.43413,0,0,1-5.08722-8.55234c-.84722-2.33494-1.63088-4.69282-2.44809-7.03826a40.65814,40.65814,0,0,0-6.6155-12.01934c-.00536-.00707-.03189-.02476-.03714-.01769a.29559.29559,0,0,0-.06191.23874c.99586,2.96112,1.05595,6.27771,1.48053,9.34844,1.21873,8.79831,5.27288,12.9497,5.40737,13.10541.10613.12377.00879.24405-.08667.17329-.17866-.13266-.329-.24233-.50772-.39086a38.00409,38.00409,0,0,0-8.78759-5.1615,44.35794,44.35794,0,0,1-7.155-3.90038A31.29141,31.29141,0,0,1,5.8036,84.97736a.28156.28156,0,0,0-.25123-.03361,19.64824,19.64824,0,0,0,1.35322,3.37137A29.0473,29.0473,0,0,0,15.748,98.66119a26.64169,26.64169,0,0,0,12.22276,5.20219C30.70012,104.31792,33.39761,104.96891,36.111,105.52787ZM13.61131,87.45729c2.73458,1.82545,6.88259,4.27177,8.3383,5.20036a.0776.0776,0,0,0,.023.0089s.10082-.17688.06368-.27246a.5556.5556,0,0,0-.02129-.05831C20.20016,88.745,19.92959,84.82872,19.61125,80.87c-.27423-3.42626.35371-7.70683.17688-11.0358A36.96736,36.96736,0,0,0,18.067,61.73112a3.05231,3.05231,0,0,0-.138-.38738c-.06009.00526-.1503.12913-.17152.18214-.007.01946-.00177.023-.00531.04245-.36085,4.08251-1.82374,7.72286-2.35252,11.05891a27.25454,27.25454,0,0,0,.85784,11.81062c.06009.16627-.10265.207-.161.11492-2.15275-3.27763-6.81356-8.004-9.23517-10.50338C3.773,70.7982,1.65559,67.77523.48461,64.04124c-.0089-.02653-.168-.13974-.20524-.12382a3.28828,3.28828,0,0,0-.03715.52712,25.13773,25.13773,0,0,0,4.5743,14.61419A32.23368,32.23368,0,0,0,13.61131,87.45729ZM12.17494,75.19208c.00354-.00537.01056.00707.01592.00536.1309-.0974.12029-.131.0796-.44409a22.75769,22.75769,0,0,1,1.47169-10.36541C15.58706,59.07425,17.37,53.59264,17.95024,47.996a21.79142,21.79142,0,0,0,.12907-2.24821c-.0477-.02128-.20513.07783-.2122.09728a49.68466,49.68466,0,0,1-3.74638,6.66321c-2.06961,3.25474-4.431,6.49345-4.714,10.40443a18.48365,18.48365,0,0,0,.06893,3.35723c.00183.023-.03886.12564-.12376.10088a.11355.11355,0,0,1-.06893-.07606c-.24941-.95164-.536-2.09261-.9004-3.3219C6.4793,56.51837,1.91561,52.46765,1.94032,43.03255c-.01227-.04235-.122-.20514-.18562-.2069a9.31883,9.31883,0,0,0-.64038,1.6238c-4.06841,13.116,4.19041,22.5298,5.82842,24.52512C8.45676,70.81771,10.9137,73.37187,12.17494,75.19208ZM6.2635,49.121c.88083,2.52061,2.06242,6.25106,2.31891,7.21331.007.03007.16981-.04063.18926-.11674.70578-2.69042,3.63322-7.93324,5.464-10.39371.13084-.17694.26356-.35029.39451-.52535a37.7668,37.7668,0,0,0,4.98109-7.553c.83832-1.9386,2.13671-6.10071,2.21985-6.4934.00177-.01415-.04776-.01768-.1079-.00889a.30369.30369,0,0,0-.214.04427.2566.2566,0,0,0-.0566.04422.12824.12824,0,0,0-.03007.03709A30.53306,30.53306,0,0,1,16.39542,36.969c-2.41089,1.967-4.29123,3.46518-5.74523,6.35194-.15571.30773-.34138.734-.5254,1.18331-.4421,1.04014-.88266,2.2801-.88791,2.30481-.01592.0796-.15383.19634-.20336.04428-.04079-.12913.24222-3.5324.267-3.99412a44.848,44.848,0,0,0-.76066-8.21985,25.72368,25.72368,0,0,1,.16273-10.33711c.06368-.27412.14157-.5484.22117-.819.06014-.207.1079-.36615.17506-.57311.01061-.03537-.04063-.19634-.10078-.21762C5.37548,27.09343,3.32887,35.14706,4.21517,41.354A70.44285,70.44285,0,0,0,6.2635,49.121Zm5.22513-13.66084c0,.91975-.01763,1.6981-.06368,2.18807l.00354.00348c-.00183.01244-.00183.02836-.00354.04069-.00536.05306.14682-.0424.14682-.0424l.03543-.03892a47.31627,47.31627,0,0,1,6.56769-6.81892c1.875-1.55128,3.849-3.04065,5.60548-4.71758a17.58737,17.58737,0,0,0,4.28947-8.39844,2.5533,2.5533,0,0,0,.0566-.40861.35437.35437,0,0,0-.21751.06191c-.24941.32541-.50241.64917-.74657.97994A17.30144,17.30144,0,0,1,22.28393,22.689c-3.3025,2.08371-5.6197,3.66335-7.4876,6.19457-.0141.01946-.03008.03886-.04417.06014-.08491.15389-.253.0796-.20159-.08142.56774-1.83783.81007-2.984,1.20447-4.60249.64563-2.6656.93926-6.18927,1.93877-8.533a11.85711,11.85711,0,0,1,2.69568-3.88617.0699.0699,0,0,0,.0283-.03178.36983.36983,0,0,0,.016-.24587,3.429,3.429,0,0,0-.64563.2441,15.55207,15.55207,0,0,0-7.32486,8.00222,16.24931,16.24931,0,0,0-1.217,6.68455c-.00172.76414.023,1.53005.05837,2.29243C11.39488,30.67359,11.48681,33.41182,11.48863,35.46015ZM18.649,22.2716a.13992.13992,0,0,0,.07949.00531.29567.29567,0,0,0,.04079-.03184c.94275-.73054,4.71034-3.65976,6.007-4.967a29.63293,29.63293,0,0,0,4.82725-5.95926A32.18377,32.18377,0,0,1,34.71541,5.227c.1645-.14681.28655-.24587.45282-.39451a.29144.29144,0,0,0,.02471-.23166,24.89108,24.89108,0,0,0-9.66489,4.67507c-4.97052,3.93033-6.67393,11.87076-6.872,12.95324C18.65424,22.24507,18.649,22.2716,18.649,22.2716Zm55.9964,43.26786c.3892-.58549-.58184-.95518-.83479.06185C73.57347,66.5477,74.25453,66.12312,74.64539,65.53946ZM85.24263,41.03734c-.37677-.19635-1.92633,1.69273-1.67864,1.99874A7.0243,7.0243,0,0,0,85.24263,41.03734Zm.33254-.33432c.23349.122,1.26119-.437,1.0701-.58731-.18926-.15207-1.39728-.711-1.4221-.36969C85.18785,40.3015,85.33992,40.581,85.57517,40.703Zm18.665,16.36187c-.48643.02123-1.0136.72518-.865.73408.35023.01763.61727.26886.89858.2069C104.7902,57.891,104.72652,57.04544,104.24014,57.06489ZM97.476,39.44709c-.41922.01066-.5254.467-.1221.674a1.48568,1.48568,0,0,0,1.01885-.15743c.27777-.17511.60147-.39268.54133-.8172-.03543-.25826-.63679-.987-.322-1.2665.33962-.3043.68278.168,1.01532.03886.40512-.15737.368-.38909.38042-.734.0158-.47753-.17518-1.10553-.72877-1.10553-.4122,0-1.12858,1.10371-1.16042,1.171a1.24533,1.24533,0,0,0,.007.93395C98.35158,38.75552,98.256,39.42591,97.476,39.44709Zm9.168.07606c-.01244.25477.72341,2.02715.7977,2.51.07434.4829.22641,1.92982.61556,1.78123.24587-.09557.22287-.98176.16981-1.32492a17.87669,17.87669,0,0,0-.73231-3.007c-.19634-.60147-1.04893-2.56484-1.33194-2.49591-.25118.06026.42275,1.42929.52181,1.875A1.81206,1.81206,0,0,1,106.644,39.52315ZM101.79913,15.886c.45282.17164.451-.67387-.31845-1.29833-.7642-.62264-1.78306-.32011-1.50712-.01227A8.99566,8.99566,0,0,0,101.79913,15.886ZM80.939,9.895c-.90919-.58731-.14853-1.39739-.87547-1.94214a2.29776,2.29776,0,0,0-2.29066.44918c-.61385.79427.79244.53071,1.30187.75712.56957.25112,1.79185,1.30187,2.00936,1.08961C81.29986,10.03469,81.03984,9.9887,80.939,9.895Zm5.526-2.78063c-1.2241-.559-5.83367-.53425-5.71339.665.09905,1.02422,2.66212.062,3.32544.00536C84.74205,7.7264,87.54573,7.66979,86.46491,7.11432Zm-13.48755,53.635c-.06014-.22812-.45984-.191-.36079.01952.09911.21044-.12028.42452.08485.68808a.92184.92184,0,0,0,1.141.01415.44335.44335,0,0,0-.06551-.59428C73.55583,60.7671,73.0375,60.97759,72.97736,60.74935Zm-1.77587-9.16972c.38031,0,.36615-.28473.58721-.27411.22287.00884.04079.28837.42629.28837.38213,0,.78366-.9853-.44575-.9853C70.76812,50.60859,70.90084,51.56554,71.20149,51.57963ZM72.797,52.59849c-.76409-.19634-.60854.23885-1.07718.29009-.77663.085-.08667-.57311-.4688-.87558-.1681-.13261-.62446.53242-.658.9481-.02123.19989-.02653.87741.30247.89864.329.02117,2.05889.21933,2.63564.35017C74.19085,54.36209,73.50459,52.78074,72.797,52.59849ZM64.28,61.78065c.23526,0,.40507-.83495.26-1.24527-.14676-.41037-.90383-.10265-.971.08844C63.50345,60.81657,64.043,61.78065,64.28,61.78065Zm-11.16327-.08314c.03372-.35913.00365-1.40977-.24759-1.61313-.25112-.20171-.21756.17854-.39793.15737-.13974-.01592-.12747-.50418-.3043-.50235-.17689,0,.06014.83489.24941,1.3195C52.60557,61.54534,53.07254,62.33961,53.11671,61.69751Zm-.26881-2.55068a10.98887,10.98887,0,0,0,.382-2.54184c-.06014-.66691-.41557-1.29656-.50578-1.25057-.12039.0619.05478.46167.07595,1.10906a9.02769,9.02769,0,0,1-.42447,2.09079C52.37379,58.85492,52.66217,59.536,52.8479,59.14683ZM23.041,52.9611A52.93374,52.93374,0,1,1,38.545,90.41834,52.61889,52.61889,0,0,1,23.041,52.9611Zm16.314,35.048L45.10912,82.255a43.153,43.153,0,0,1-3.18388-3.76936,2.89293,2.89293,0,0,1-1.20989-.81014c-.49174-.61384-.74994-1.51236-.98354-1.51236-.2352.00176-.01934.57128-.543.64739-.71285.10431-1.71927-1.668-2.112-2.31365-.46343-.76061-1.2241-.76768-1.59732-1.48059-.10785-.20513-.36616-.83484-.60489-.46161C34.48015,73.188,33.127,71.175,32.78205,71.313c-.35559.13791-.0425.55713-.24238.734-.38733.345-1.52647-1.54238-1.95276-1.34957-.39976.18219-.49174.42458-.51479.92511-.02117.52.62264,1.85729.39622,1.96165-.32182.14682-1.96867-4.04707-1.6096-4.23817.2016-.1079.16981.1911.39794.05484.23531-.14151-.16445-.4316-.27229-.88625-.11321-.47577-.52541-.48643-.56078-1.01-.03179-.52187.71279-.34669.704-.60146a.91057.91057,0,0,1,.26876-.72695c.24592-.21231.8208.01056.94462-.72528.10613-.62789.42276-.04588.48826.421.07606.54121,1.45925.67742,1.52646.306.04063-.23525-.559-.22641-.559-.43513-.00171-.39976.76066-.01769,1.2807.02824.22642.01946.63508-.34669,1.15152-.07954a4.19007,4.19007,0,0,0,1.28242.49351,42.32418,42.32418,0,0,1-2.089-12.09192h-8.105A50.33665,50.33665,0,0,0,39.35505,88.00911ZM72.7881,41.05851c.0566.08667-.5306.62092-.83131,1.13925a11.40313,11.40313,0,0,1,2.9133-.67576V33.3959a19.52482,19.52482,0,0,0-11.89552,4.93858L68.711,44.07092a11.56626,11.56626,0,0,1,2.14739-1.39745c.19988-.099.40147-.191.605-.27766C71.856,41.7095,72.71386,40.9453,72.7881,41.05851ZM52.75946,71.35544a2.05756,2.05756,0,0,1-.039.47051c.421.51651.85087,1.02417,1.30369,1.51232l5.747-5.74695a21.81346,21.81346,0,0,1-5.30832-10.89086.33463.33463,0,0,1-.421-.14328c-.11669-.2016.05312-.40678.30081-.612-.08313-.6102-.14328-1.22753-.17517-1.852h-3.826c.039.60854.283,1.48583-.11857,1.79185-.33072.25123-.79947-.00354-1.09846.03714-.734.09906-.90211.98525-.70748,1.58672a2.347,2.347,0,0,1,.23348,1.15505c-.0655.41032-.28837.73049.3608,1.07364.59438.31138,1.55664,1.53183,1.477,1.74238-.10259.27063-.69339-.253-.73048.237-.023.30065.872-.085.82069.9339a4.073,4.073,0,0,0,.29009,1.64857,5.11547,5.11547,0,0,1,.72523,2.36147,5.19639,5.19639,0,0,0,.17871,2.4021C52.12974,69.83069,52.75592,70.4515,52.75946,71.35544ZM47.98179,57.684c-.47234-.54127.31309-2.08017.42977-2.38264.12565-.32016.8385-.7323,1.05247-1.20818h-3.405a30.22311,30.22311,0,0,0,.658,5.24464C47.53427,59.6368,49.10506,58.97,47.98179,57.684ZM45.845,79.5806a.57142.57142,0,0,1-.08131.03537q.46433.52793.94634,1.03826l.64916-.64917C46.75061,79.62122,46.18994,79.37889,45.845,79.5806ZM59.77118,38.33094l-5.73108-5.731A29.84287,29.84287,0,0,0,46.06076,51.829h4.01535c.67216-1.08248.444-1.90682.66862-2.53653a9.33359,9.33359,0,0,1,.90212-1.6892c.2954-.47582.63153-1.01178,1.25063-1.01532,1.30889-.00707,1.63431-.69168,2.464-1.07192.82954-.38031,2.29774-.605,2.13141-1.03837-.11321-.29181-3.06359.85258-3.12727.62971-.1115-.39086.93036-.35377,1.36909-.75a1.01609,1.01609,0,0,1,.25289-.17152A21.90145,21.90145,0,0,1,59.77118,38.33094Zm-1.033,5.36321a2.43346,2.43346,0,0,0,.237-.11674,3.58583,3.58583,0,0,1,2.82662-.2158,11.67058,11.67058,0,0,1,2.02887,1.41331c.17866.13615.26351-.1168,1.09846-.24233.34846-.05136.42812.29893.92511.36969a2.4362,2.4362,0,0,0,.51479.02653L61.3737,39.93534A19.80182,19.80182,0,0,0,58.73817,43.69415Zm-5.625,6.17147a1.68267,1.68267,0,0,0-1.62021.75,1.65207,1.65207,0,0,0-.2247,1.21338h2.8992c.02836-.54834.07777-1.09138.1451-1.62734A3.42486,3.42486,0,0,0,53.11317,49.86562Zm8.26236,16.12313L67.11545,60.247a11.55884,11.55884,0,0,1-1.233-1.83955l-.00171.00354a1.3707,1.3707,0,0,0-.21226.31126c-.11846.25649.03537,1.1109-.32016,1.477-.45819.474-1.6892-1.04362-2.0784-1.16921a.60291.60291,0,0,0-.75348.58366c.0707.43691-.01774.61208-.20878.651-.19109.03715-1.15334-.61738-.7234-.78183.50053-.18926-.13095-.62092-.34681-.7889-.3714-.28656-.95153-.01946-1.224-.39976a2.41635,2.41635,0,0,0-1.01178-.75177,1.50248,1.50248,0,0,0-1.04893-.07783c-.29009.15561-.60318-.161-.8208-.37322-.12023-.11675-.24051-.253-.36787-.38561A19.55828,19.55828,0,0,0,61.37553,65.98875Zm5.74517-9.91447c.00182-.04953.00536-.10077.01072-.15212.00172-.01415.00172-.02825.00354-.04068.00348-.03886.00873-.07778.01227-.11675a.46149.46149,0,0,0,.00708-.04952L67.165,55.641a.326.326,0,0,0,.007-.04068c.00171-.01416.00525-.03007.00708-.04417q.01335-.07968.03178-.154v-.00354c.01072-.0477.023-.09546.03726-.13974.00348-.01592.00873-.02824.01227-.04234.01072-.03189.01951-.062.03189-.092l.01592-.04245a.83752.83752,0,0,1,.03715-.07965l.016-.03355a.72473.72473,0,0,1,.06009-.09193.28652.28652,0,0,1,.29009-.09557,6.66163,6.66163,0,0,0,.70047.17152.55712.55712,0,0,0,.50064-.237,1.53466,1.53466,0,0,0,.17859-.28826.70925.70925,0,0,0,.0796-.27594.24536.24536,0,0,0-.01946-.10442c-.0425-.08667-.15925-.11492-.3892-.03532-.0477.016-.09369.03178-.14145.04422a1.23425,1.23425,0,0,1-.27948.0477.63151.63151,0,0,1-.13084-.00707.46387.46387,0,0,1-.32381-.18927.6963.6963,0,0,1-.07241-.1362.80085.80085,0,0,0-.09557-.17689,1.64038,1.64038,0,0,0-.57311-.44392,2.204,2.204,0,0,1-.329-.22824,1.4366,1.4366,0,0,1-.15566-.1556c-.04069-.046-.07965-.09021-.12028-.13267-.016-.01592-.03178-.03007-.04776-.04422-.02653-.02653-.05135-.05135-.0796-.07606-.01946-.01774-.04062-.03538-.06014-.05135-.023-.01935-.046-.03715-.069-.05478-.02471-.01946-.04776-.03543-.07258-.05307-.01946-.01243-.04063-.02653-.0618-.039a.75479.75479,0,0,0-.08148-.0477l-.05306-.02653c-.03007-.01415-.06186-.02836-.09187-.04069-.01426-.0053-.02836-.00884-.04251-.0142-.03543-.01061-.0707-.02294-.10613-.03007l-.02123-.00354a.9062.9062,0,0,0-.82782.28484l-.01061.00884a1.73559,1.73559,0,0,0-.12913.14328l-.01415.01587c-.04245.05489-.085.11149-.1273.177a.04185.04185,0,0,1-.01073.01581q-.06358.10083-.1273.21762a4.455,4.455,0,0,0-.25471.56073c-.658,1.72281-1.42039,1.19569-1.2948,1.80959.01415.07241.19988.12194.4688.14322.10784.00879.23.01415.35725.01415.12913,0,.2671-.00354.40512-.01238.13974-.00708.28119-.01951.41911-.03715.069-.0089.1362-.01945.2017-.03007.04069-.00536.07778-.01243.11675-.01945.03715-.00708.07424-.01415.11149-.023l.09723-.02122c.04251-.01062.08137-.023.12029-.03361.02471-.00708.04952-.01421.07075-.02128a1.39381,1.39381,0,0,0,.1681-.06368,2.79377,2.79377,0,0,1,.267-.10613l.00879-.00172a1.73811,1.73811,0,0,1,.25123-.06368.89236.89236,0,0,1,.45282.01415.81794.81794,0,0,1,.40866.30248A1.59638,1.59638,0,0,1,67.1207,56.07428Zm7.74939-24.946V23.01982a29.84329,29.84329,0,0,0-19.231,7.97923L61.372,36.73013A21.776,21.776,0,0,1,74.87009,31.12824Zm0-10.37437V12.64551A40.18669,40.18669,0,0,0,48.30908,23.669l5.731,5.72925A32.10131,32.10131,0,0,1,74.87009,20.75387ZM46.70822,25.268A40.18421,40.18421,0,0,0,35.68828,51.829h8.10664a32.10854,32.10854,0,0,1,8.64437-20.83ZM35.68828,54.09317A40.08839,40.08839,0,0,0,37.87988,66.132c.04782-.00353.092-.00536.13974-.00707a5.076,5.076,0,0,0,2.441-.41214c.79781-.61556.06014-2.81778.56078-3.73582.61733-1.1356,2.15971-3.82956,2.62326-3.8473.41032-.01587.39269.29014.60136.33962a32.31693,32.31693,0,0,1-.44935-4.37614ZM74.87009,95.54088a42.43815,42.43815,0,0,1-28.16187-11.685L40.9542,89.61a50.3432,50.3432,0,0,0,33.91589,14.03583Zm0-10.37072a31.97124,31.97124,0,0,1-19.45028-7.40623,3.61589,3.61589,0,0,1,.31491.43519c.37317.64381,1.67151,1.95281.84551,2.47639-.68632.43337-1.82374.14146-2.46053.1309-.70223-.0089-1.72286,1.04-2.32421,1.14445a3.01836,3.01836,0,0,1-1.921-.21763,3.66877,3.66877,0,0,1-.65265-.39086l-.91273.91267a40.19361,40.19361,0,0,0,26.561,11.02171Zm0-2.84962a8.49987,8.49987,0,0,1-3.2742-.22469c-.85076-.589-1.86437-1.16739-1.97929-1.62375-.20524-.81019-1.31425-1.41862-1.31425-2.17746,0-.8438,1.16561-1.11974.85435-1.97586-.24941-.681.41391-1.53354,1.6274-2.12793A21.84793,21.84793,0,0,1,61.372,69.19213l-5.74346,5.74346a29.7281,29.7281,0,0,0,19.24156,7.96514ZM76.623,71.48633c.86314-.1451,1.77946-.3945,2.5577-.47228.85259-.0849-.03532,1.12853.47057,1.17806.60489.06014,3.0919.48461,3.26707-.0796.14328-.46344.17689-.67217.71113-.78714a5.73626,5.73626,0,0,0,2.65671-.83844c.30783-.23525.9429-.32016,1.125-.66862.18224-.34852-.13084-1.99709-.74464-1.72817-.29893.13266-.65972.559-1.29833.88094-.57842.29-.98879.42265-1.39911-.12746-.37505-.50053.21923-.89322.52707-1.2293.47582-.52187.90736-1.05075,1.4363-1.05075.20519,0,1.29834-.543,1.20641-1.04-.12039-.64386-1.39037.05837-1.68577-.207-.20513-.18224-.00353-.64563-.16279-.71638-.14852-.069-.61727.57128-.25466.91809.1875.18036-.30429.68272-.85612.32182-.42452-.28119-.53425,1.26655-.4971,1.54957.03725.283.62263.20513.2336.71456-.391.513-.536.13272-.82434.38384-.3467.30429-.42447.421,0,.86143.33962.35023-.19988,1.01537-.32553.39274-.08313-.41391-.95335-.28833-1.1178-.75707-.16981-.4829-.87741-.43514-1.73707-.87558-.651-.33437-.56785.6527.536.90383.93743.21408.88972.32552.62081.91272-.21934.48119-.17683-.36969-1.29126-.665-.71639-.18927-.74994-.57134-1.3142-.56432-.57134.00536-.3839.54658-.98708.40512-.45631-.108-.52706.50761-.948.68632-.51308.21933-.4829,1.148-1.00476,1.40446-.77647.38031-2.36855.09375-2.296-.6757.07251-.76945.10795-1.34432.5537-1.615.39258-.23525,1.04.45454,1.58489.2105.56957-.25295.4263-.85967.08131-1.24881-.10259-.13267-.52-.33962-.51125-.47052.0089-.161.8208-.23708,1.23118-.513a11.12456,11.12456,0,0,0,1.06485-1.17634c.22458-.17507.66508-.21934.70577-.382.0566-.207-.31138-.58378-.27594-.83672s.12376-.44747.32016-.43332c.19634.01592.42977.582.3043.71816-.14328.15389.10248.41391.36969.30418.26875-.10966,1.22222-.48284,1.49993-.55541.37671-.10077-.09375-.95336.02835-1.10554.11492-.14327.22642.04605.37141-.099.145-.145-.29717-.28832-.22642-.59787.05135-.23349,1.04893-.50412.77476-.68106-.27412-.1786-.64381.3379-.86314.43514-.49716.21939-.73938-.32365-.72358-.73585.0089-.19982.27948-.90736.04251-1.04539-.32906-.18926-.38384.65271-.43519.81727A1.23448,1.23448,0,0,0,79.1967,62.75c.19634.36615.09552,1.60606-.28656,1.74226-.40683.14682-.58554-.62971-.77652-.94981a.30159.30159,0,0,0-.10077-.115l-.01072-.00531a.09556.09556,0,0,0-.04942-.0089h-.00183a.10827.10827,0,0,0-.05306.02654l-.01415.01243a.3666.3666,0,0,0-.05843.0707c-.03178.04959-.08313.1362-.12548.2105a2.65428,2.65428,0,0,0-.16632.39622.36015.36015,0,0,1-.28833.25477,11.449,11.449,0,0,1-1.263.07423c-.16455,0-.329-.00353-.49174-.01055a3.92241,3.92241,0,0,0,.23526.70931c.22464.42452.65442.76768.582,1.08076-.07258.3148-1.385.59964-1.493.36969-.13443-.28655.33072-.86143.29358-1.12145-.06716-.47405-.306-.75707-.27594-1.08607a11.43619,11.43619,0,0,1-6.136-2.55251l-5.74174,5.74175A19.55253,19.55253,0,0,0,73.30289,72.3743c.55542-.33962.78354-.94639,1.22227-.61739C75.22385,72.28409,76.06583,71.58008,76.623,71.48633Zm.5112,13.682v8.10841a40.22327,40.22327,0,0,0,9.51642-1.41326c-.63325-.53778-.92158-1.40977-1.70518-1.67863-1.34786-.46344-1.71048-1.29309-.98171-2.49591.3944-.64917.23885-.90565-.22287-1.59727a3.97355,3.97355,0,0,0-1.81667-1.45576A32.10432,32.10432,0,0,1,77.13422,85.16834ZM81.02575,82.501a1.26788,1.26788,0,0,0-1.18342-.20524c-1.31785.35736-.8773-.68986-2.70811-.42276v1.03124A30.2793,30.2793,0,0,0,81.02575,82.501Zm30.02259,7.109-5.75407-5.75407A42.813,42.813,0,0,1,95.279,90.93662a20.1466,20.1466,0,0,1-3.81187,2.08719,3.82743,3.82743,0,0,1-1.50883.49.869.869,0,0,1-.46863-.14858,42.37861,42.37861,0,0,1-12.35548,2.17563v8.10493A50.33543,50.33543,0,0,0,111.04834,89.61ZM99.70481,30.98667a.14116.14116,0,0,1-.0655.09381,32.512,32.512,0,0,1,3.59425,4.67324c.12393-.15737.22116-.29711.39268-.10076.28655.32718-.29882.92157.55022.76591.51115-.09375.40678.56067-.00718.911.26184.47217.51479.94982.75358,1.43443.29888.13449.5253.29722.57129.49179a14.2668,14.2668,0,0,1,.4599,1.83077,32.48442,32.48442,0,0,1,1.0649,3.13434c.41751-.35725.888-.16273.93749.43337a3.55952,3.55952,0,0,1-.39976,1.776,32.08827,32.08827,0,0,1,.65271,5.39848H116.316a40.55644,40.55644,0,0,0-3.42981-15.21029c-.16091.12912-.37671.13974-.64916.48472-.41032.51816-1.07364-.12918-1.438-.582-.67924-.83843-2.27839-3.19631-2.99826-3.31488-.60146-.09906-1.05075-.88083-1.684-1.01-.63137-.12912-1.42033-.48472-1.52292-1.15334a1.07394,1.07394,0,0,0-1.05954-1.07547,3.06922,3.06922,0,0,1-1.90683-1.03118l-1.94042,1.94048A.19987.19987,0,0,1,99.70481,30.98667Zm5.14553,49.22364.44393.44392A40.16938,40.16938,0,0,0,116.316,54.09317h-8.10659A32.10938,32.10938,0,0,1,99.56507,74.925l2.92562,2.92562c.02129-.04068.04063-.08131.06009-.122a4.73993,4.73993,0,0,0,.17871-1.65388c.02471-.30778,1.141-.23349,1.22056.27412a14.82228,14.82228,0,0,0,.67559,1.806A3.26737,3.26737,0,0,1,104.85034,80.21031Zm-6.1556,5.05885c-.214.51479-1.29834,1.44162-1.11078,1.74591a40.68551,40.68551,0,0,0,6.11132-4.76L97.9642,76.52573c-.39976.37329-.8119.73231-1.23112,1.08613-.09911.65625-.00889,1.17093.79781,1.42034.87022.26892,2.32245,1.15334,2.01644,2.01118-.34316.76774-1.19221,1.91743-1.60258,2.67986C97.59623,84.37418,98.953,84.65189,98.69474,85.26916ZM100.032,51.72645a.428.428,0,0,1-.05843.10259h5.96993c-.03184-.86143-.10436-1.714-.207-2.5577-.04775.08844-.09911.17688-.13973.26356-.44575.92693-.513.36792-.48108-.03533a5.9912,5.9912,0,0,1,.42983-1.523c-.046-.276-.09558-.5484-.15035-.82075a2.089,2.089,0,0,1-.842.63679c-.2635.13438-.51291.7553-.61031.99232-.11492.28656-.77116-.06721-1.31066.19281-.94628.45636-1.91572.52535-1.224,1.50529C101.85037,51.10735,100.34862,50.93229,100.032,51.72645ZM97.9642,32.59992l-5.731,5.731a22.04686,22.04686,0,0,1,2.61254,3.56252,3.3596,3.3596,0,0,1,2.1863,1.13737c.41922.54122,1.62911,1.62375,1.44333,2.10847-.11321.29711.13974.66509.41573.85961.42276.29545.72169.28838.95336-.007.42275-.5395.483-1.26827,1.04367-1.72817.68632-.566,2.0925,1.06839,2.09079,1.36732-.00183.29888-.36444.36969-.46875.90035-.14145.72523-.76409,1.59019-.0566,1.83247,1.03124.352,1.16213-.053,1.65741-.77824.22813-.33437.17871-.87386.42447-1.20458a2.08709,2.08709,0,0,1,.59439-.4352,29.73177,29.73177,0,0,0-1.53536-4.66263,1.40464,1.40464,0,0,0-.55006-.34316c-.3698-.12205-.161-.45283-.64563-.605-.55548-.17506-.77128-.33431-.82252-1.30895-.04079-.78537.66327.25826.83833.12205a.5312.5312,0,0,0,.10442-.12912A30.11106,30.11106,0,0,0,97.9642,32.59992Zm-6.9534,7.78117a1.9681,1.9681,0,0,1-.69505-.13266l-1.8945,1.89273c.36267.09723.76415-.03726,1.217.16444.50418.221.25826-1.408,1.02942-1.25942.78719.15035.98879.65625.33791.90212-.52182.16981.12918.60489-.50236.819-.57493.19635.467.704.45819.93042-.01072.31309-.78543.42983.37848.78891,1.16208.35907.00348-.97823.18037-1.16568.21585-.22823.83672.36079,1.0083.10083.06362-.09558.17865-.26174.3201-.45283A19.61613,19.61613,0,0,0,91.0108,40.38109ZM88.05687,70.47278c.0141.398-.38738.07955-.50943.21575a17.64962,17.64962,0,0,0,3.70751,1.77067,4.75644,4.75644,0,0,0,2.23058.07424c.803-.15914,1.02588.21055,1.40082.19634.53425-.0194.88094-.74109,1.19049-1.18513.82069-1.17092.66509-1.3283.88265-1.51054.27766-.23349,1.08431,1.55836.98172,2.694-.01763.18042-.03892.34846-.06368.50943l.08667.08667a29.84377,29.84377,0,0,0,7.97929-19.231H99.78076a13.67843,13.67843,0,0,1,.96762,1.60258c.31126.64038.49533,1.65741,1.01885,1.707.84369.0796,1.71225.7783,1.73707,1.3655.04953,1.22764-3.75886,1.52475-4.2595,1.36738-.42093-.13267-.70042-.161-.72866.49881-.03189.74817-1.37622.75354-1.90516,1.201-.59428.50235-.65973,1.42044-1.05772,2.06071a14.6202,14.6202,0,0,1-2.02893,1.98111c-.91621.64038-2.64083.67217-1.85193,1.09492.5625.30082,1.83966.40684,1.67859.10973-.18391-.34139.09728-.37323.31308-.09375.16633.21043.76592-.20342.75364-.589-.01243-.36438-.092-.95872.24576-.98177.5484-.03532,1.125-.6438,1.39745-.5872.30955.06368.72877.75176.41386,2.84779a10.68034,10.68034,0,0,1-1.7122,4.21523c-.43154.704-.86319.16627-1.44161-.1309a18.42844,18.42844,0,0,0-2.61972-.61556C90.29093,71.01405,88.04454,70.16323,88.05687,70.47278ZM126.685,54.09317h-8.10311A42.44847,42.44847,0,0,1,106.89513,82.255l5.75407,5.75407A50.32605,50.32605,0,0,0,126.685,54.09317ZM112.6492,17.915l-6.00348,6.00342a20.41079,20.41079,0,0,0,3.0406,3.65091c.59793.6102,1.233,1.20812,1.76543,1.74762.51114.51474,3.78523,4.5884,3.152,5.17914-.046.04428-.09546.085-.145.12559A42.79408,42.79408,0,0,1,118.5801,51.829H126.685A50.31814,50.31814,0,0,0,112.6492,17.915Zm-35.515-7.53359A42.36163,42.36163,0,0,1,96.22548,15.4456a5.95861,5.95861,0,0,0,1.438-.32016c.72175-.33608,2.14031.428,2.82491.82606.62435.36079,1.10907.895,1.79539,1.28059a4.79592,4.79592,0,0,1,2.07834,2.66748c.24947,1.14085.97287,1.06308.61208,1.52481-.18042.22989.09552.31833.44039.52352l5.63561-5.63379A50.32661,50.32661,0,0,0,77.13422,2.27822Zm0,10.37248a32.04486,32.04486,0,0,1,18.34652,6.55724c-.58013-.76774-1.1675-1.562-1.4399-1.85381-.497-.52889-2.35788-1.17988-2.17027-1.4823.18562-.30429,1.84137,1.01709,2.13141.78532.34841-.27937-.83136-1.7971-.74286-1.85553a7.762,7.762,0,0,1,2.2057,2.48c.28655.42629,1.04721.21044,1.63978.62263.5217.36615.55713.95164.99581,1.32841.07075.06191.9994.59793.4599.536-.15566-.01769-.39451-.34852-.57311-.18042-.11144.10613.06722.6757.38738,1.29833l2.69224-2.694c-.391-.79245-1.16213-1.83784-1.69992-1.9705-.55542-.13621-.8968.33077-1.27888.64734s-.85966.42275-.91974.21049a10.04617,10.04617,0,0,1,.04952-1.07717c-.039-.30955-.2813-.55365-.36266-.85259-.19281-.70406.09374-1.48932-.33437-1.9564a12.75361,12.75361,0,0,1-1.15324-1.87847A6.17069,6.17069,0,0,1,94.2,16.942a40.15809,40.15809,0,0,0-17.06581-4.29649Zm0,10.37437a21.78016,21.78016,0,0,1,13.4981,5.60189l5.7329-5.73108a29.84751,29.84751,0,0,0-19.231-7.97923Zm0,10.392a11.53318,11.53318,0,0,1,2.26938.45985c.1928-.47228.6757-.70749,1.07192-.97635.4688-.31845.80842-.67753.74121.18744a1.67465,1.67465,0,0,1-.62972,1.2241,11.5216,11.5216,0,0,1,2.25175,1.29834c.15384.11492.30419.2352.45283.35731l.77829-.77835a.3176.3176,0,0,1-.01409-.08668c.01409-.4421.65442-.96933,1.3938-1.293l2.52763-2.52769c-.05661-.01238-.11846-.023-.191-.03189-.33962-.04235-.82252.6616-1.15324.46708-.37334-.21768,1.11609-1.53011,1.78123-1.27716.09022.03361.18916.07252.29181.1132l.32193-.322A19.52019,19.52019,0,0,0,77.13422,33.3959Zm-1.13207,2.20753a9.21715,9.21715,0,0,0-2.75587.41739c-.11674.12742-.20524.23355-.13791.329.22287.32552.90211-.35725.99227.27074.06722.45631-.75176.12023-.67747.45631.06009.26881.62794.15743.64209.52712a1.85648,1.85648,0,0,1-.61727,1.18159c-.36444.23349-2.30664.49-2.49237.941a3.32076,3.32076,0,0,1-.63678,1.07374c-.33072.34852-1.88919,1.27352-1.89273,1.51414-.00879.5678.74828-.15566.95872-.37854.33437-.35377.79427-.352,1.29485-.63855.6898-.39274.95518.98171.2158,1.03124-.46172.03178-.85076,1.32841-1.57428,1.079-.18213-.06368-.69692-.38213-.80842-.05307-.11845.35018,1.07547.40507,1.45052.65271.95335.62971-.72346.58549-.99233.757-.26538.16981-.13443.536.22824.38744.35018-.14511.826-.51126,1.04356.08313.29364.80477-1.32486,3.74107-1.79538,3.43152-.25648-.168-.52181.07081-.76237.17334a9.335,9.335,0,0,0,1.1922,1.85381c.31845-.5254.82069-1.26832,1.033-1.27357.30065-.00884.19988-.24587.31309-.45813.13974-.25648.497.01238.52181-.33785.02471-.34846.91626-.849,1.01886-1.362.05306-.276-.276-.55022-.13974-.77835a.69975.69975,0,0,1,.46526-.3803c.17854-.06191.6013.359.73048.17688.12913-.18219.75884-.04245,1.23991.26174.21934.13974.64563-.02117.90748.35023.36261.51125-.01769.55542.0477.66863.06368.1132.22116-.06368.31662.03007.20353.19816-.94451.87033-.81361,1.23648.12912.36438-.97287,2.16861-1.27534,2.45516-.41568.37854-1.102-.04422-1.37263.03361-.29186.08314-.34847.33254-.79775.22288a1.85351,1.85351,0,0,0-1.14622.23879,9.1152,9.1152,0,0,0,7.54421,2.17038,2.70234,2.70234,0,0,0,.48637-1.33907,2.30631,2.30631,0,0,1,.12919-.83485c.11845-.19816.87193-1.125,1.17269-1.1126.26356.01061.444.24227.82423.12382.73766-.23178,1.194-.03538,1.2011.283.01056.444-.92864.31663-.88973.566.02471.17506.70577.43873.92865.184a1.17335,1.17335,0,0,0,.24764-1.22227c-.29546-.37323-.27771-.52712.14681-.38213.26179.09021.26-.94274.50943-1.339.33962-.53243-.62789-.15926-1.03119-.10265-.38041.05312-.69521-.75884-.704-1.04357-.00708-.20519.72169.72523,1.08955.74463a1.0055,1.0055,0,0,0,.91273-.81533c.0089-.35388-.79244-.40158-.91444-.83141-.06716-.23532.65088-.00183.5961-.23349-.046-.20342.07258-.69345-.38024-.888-.45112-.19281-.865-1.638-1.22593-1.73707-.32016-.08667-.5872.34669-.78354.50589-.19458.15748-.5059-.11492-.34316-.26527a3.3454,3.3454,0,0,0,.88094-1.04362c.18744-.61208.97453.03184.83479-.82252-.1503-.92516-.93926-.74645-.573-1.1922a.63887.63887,0,0,0-.66686-1.04363c-.352.06722-.72169-.50589-.75884-1.00117-.023-.2724-.80488-.23-.77481-.51832.062-.589-.82069-.65089-1.36019-.6102a3.11479,3.11479,0,0,1-1.69992-.99587c-.11492-.20524-.86486.18043-.61727-.612.2441-.78006.98342.14151,1.29479-.08313a.50559.50559,0,0,0,.17689-.67576C76.1189,43.73307,76.06047,43.72776,76.00215,43.72776ZM40.9542,16.31411l5.754,5.75407A42.43951,42.43951,0,0,1,74.87009,10.38139V2.27822A50.32639,50.32639,0,0,0,40.9542,16.31411ZM25.31745,51.829h8.105a42.43821,42.43821,0,0,1,11.685-28.16l-5.75407-5.754A50.335,50.335,0,0,0,25.31745,51.829Z"/></g><g id="EN"><g id="Nations_editable" data-name="Nations editable"><path d="M214.68792,119.20136H204.62444L185.03362,87.06464v32.13672h-10.0625V70.35957h10.0625l19.624,32.20312V70.35957h10.03028Z"/><path d="M242.49749,119.20136a10.7673,10.7673,0,0,1-.97266-3.25439,11.72832,11.72832,0,0,1-9.15722,3.92529,12.88652,12.88652,0,0,1-8.83985-3.08642,9.92531,9.92531,0,0,1-3.50488-7.78272,10.25956,10.25956,0,0,1,4.27637-8.856q4.27734-3.08568,12.36132-3.11962h4.46192V94.948a5.9796,5.9796,0,0,0-1.292-4.02539,5.0796,5.0796,0,0,0-4.0752-1.50977,5.77475,5.77475,0,0,0-3.84082,1.17432,3.98789,3.98789,0,0,0-1.39258,3.22021h-9.69433a9.74174,9.74174,0,0,1,1.94531-5.83691,12.86576,12.86576,0,0,1,5.502-4.21,20.05344,20.05344,0,0,1,7.9834-1.52588q6.709,0,10.65039,3.37109,3.94189,3.37134,3.94141,9.47656v15.73242q.03369,5.16651,1.44336,7.81592v.5708Zm-8.0166-6.74316a8.34707,8.34707,0,0,0,3.958-.95606,6.28,6.28,0,0,0,2.6836-2.56591V102.697h-3.62305q-7.27881,0-7.749,5.03174l-.0332.57031a3.88131,3.88131,0,0,0,1.27441,2.98535A4.94933,4.94933,0,0,0,234.48089,112.4582Z"/><path d="M269.21819,73.98213v8.92334h6.20606v7.11132h-6.20606v18.11426a4.32271,4.32271,0,0,0,.77149,2.88477,3.8728,3.8728,0,0,0,2.95214.87207,15.49782,15.49782,0,0,0,2.85157-.23438v7.34668a19.97736,19.97736,0,0,1-5.8711.87207q-10.19678,0-10.39843-10.29883V90.01679h-5.29981V82.90547h5.29981V73.98213Z"/><path d="M280.5512,73.51289a4.77574,4.77574,0,0,1,1.459-3.58985,6.28778,6.28778,0,0,1,7.9336,0,5.12157,5.12157,0,0,1-.0166,7.21241,6.21656,6.21656,0,0,1-7.88282,0A4.75614,4.75614,0,0,1,280.5512,73.51289ZM290.85,119.20136h-9.72852V82.90547H290.85Z"/><path d="M295.74358,100.71748A21.52454,21.52454,0,0,1,297.82366,91.09a15.21952,15.21952,0,0,1,5.98731-6.541,17.47061,17.47061,0,0,1,9.07421-2.31445,16.53017,16.53017,0,0,1,11.99219,4.49463q4.64649,4.4956,5.18262,12.21044l.06738,2.48243q0,8.35254-4.66308,13.40136-4.6626,5.0486-12.51172,5.04883-7.8501,0-12.5293-5.03222-4.68018-5.03175-4.67969-13.68653Zm9.69434.68847q0,5.17383,1.94629,7.91162a6.98875,6.98875,0,0,0,11.06933.0337q1.979-2.70485,1.9795-8.65088,0-5.07276-1.9795-7.86182a6.4346,6.4346,0,0,0-5.56836-2.78809,6.32582,6.32582,0,0,0-5.501,2.77149Q305.43744,95.59418,305.43792,101.406Z"/><path d="M344.12835,82.90547l.30176,4.19287a12.67423,12.67423,0,0,1,10.43359-4.86377q5.76855,0,8.58789,3.38769,2.81689,3.38892,2.88477,10.13086v23.44824H356.641V95.988a6.29,6.29,0,0,0-1.34179-4.47851q-1.34179-1.39161-4.46094-1.39209a6.66884,6.66884,0,0,0-6.13965,3.48877v25.59521h-9.69434V82.90547Z"/><path d="M392.103,109.17109a3.12485,3.12485,0,0,0-1.76074-2.80127,20.02923,20.02923,0,0,0-5.65235-1.82812q-12.94922-2.7173-12.94922-11.00245a9.97563,9.97563,0,0,1,4.00879-8.06787q4.00927-3.23656,10.4834-3.23681,6.90967,0,11.05273,3.25341a10.25558,10.25558,0,0,1,4.14258,8.45362h-9.69433a4.69161,4.69161,0,0,0-1.3418-3.43848,5.67951,5.67951,0,0,0-4.19336-1.3584,5.79939,5.79939,0,0,0-3.79,1.10694,3.49423,3.49423,0,0,0-1.3418,2.81787,2.98453,2.98453,0,0,0,1.52637,2.59961,15.69369,15.69369,0,0,0,5.14844,1.71093,42.04183,42.04183,0,0,1,6.10547,1.627q7.68163,2.81763,7.68164,9.76123a9.46808,9.46808,0,0,1-4.25977,8.03418q-4.26123,3.06957-11.00293,3.06982a19.18226,19.18226,0,0,1-8.10058-1.62744,13.581,13.581,0,0,1-5.55176-4.46143,10.366,10.366,0,0,1-2.0127-6.12207h9.19043a5.06092,5.06092,0,0,0,1.91211,3.9585,7.5852,7.5852,0,0,0,4.76368,1.37549,7.01953,7.01953,0,0,0,4.21-1.05713A3.2881,3.2881,0,0,0,392.103,109.17109Z"/></g><g id="United_editable" data-name="United editable"><path d="M212.40862,7.66377V39.8332q0,8.01782-5.01465,12.68018-5.01562,4.66259-13.70312,4.66308-8.5547,0-13.58594-4.52881-5.03173-4.52856-5.13184-12.44531V7.66377h10.06348V39.90058q0,4.79736,2.29785,6.99365a8.81691,8.81691,0,0,0,6.35645,2.19727q8.48583,0,8.62109-8.92285V7.66377Z"/><path d="M227.71038,20.20966l.30176,4.19288a12.67237,12.67237,0,0,1,10.43261-4.86377q5.76856,0,8.58789,3.38769,2.8169,3.38892,2.88477,10.13086V56.50556H240.2221V33.29218a6.29,6.29,0,0,0-1.3418-4.47851q-1.3418-1.39161-4.46094-1.39209a6.66835,6.66835,0,0,0-6.13867,3.48877V56.50556h-9.69433V20.20966Z"/><path d="M255.96038,10.81709a4.77574,4.77574,0,0,1,1.459-3.58985,6.28778,6.28778,0,0,1,7.9336,0,4.747,4.747,0,0,1,1.47656,3.58985,4.75958,4.75958,0,0,1-1.49316,3.62255,6.21656,6.21656,0,0,1-7.88282,0A4.75611,4.75611,0,0,1,255.96038,10.81709Zm10.29883,45.68847h-9.72852V20.20966h9.72852Z"/><path d="M285.643,11.28632v8.92334h6.20605V27.321H285.643V45.43525a4.32272,4.32272,0,0,0,.77148,2.88477,3.87285,3.87285,0,0,0,2.95215.87207,15.49771,15.49771,0,0,0,2.85156-.23438v7.34668a19.97734,19.97734,0,0,1-5.87109.87207q-10.19678,0-10.39844-10.29883V27.321h-5.2998V20.20966h5.2998V11.28632Z"/><path d="M313.74847,57.17646q-7.98341,0-12.998-4.898-5.01562-4.89769-5.01563-13.04883v-.93945a21.9366,21.9366,0,0,1,2.11328-9.77832,15.51616,15.51616,0,0,1,5.98829-6.64209,16.81071,16.81071,0,0,1,8.83886-2.33105q7.44727,0,11.72364,4.69629,4.27734,4.69627,4.27734,13.31689v3.9585H305.56389a9.00287,9.00287,0,0,0,2.834,5.70263,8.56945,8.56945,0,0,0,5.98828,2.147A10.46412,10.46412,0,0,0,323.141,45.301l4.76368,5.334a14.55225,14.55225,0,0,1-5.9043,4.81347A19.36606,19.36606,0,0,1,313.74847,57.17646ZM312.642,27.35468a6.05606,6.05606,0,0,0-4.67969,1.95459,10.10867,10.10867,0,0,0-2.29785,5.59278h13.48438v-.77491a7.2172,7.2172,0,0,0-1.74414-5.00341A6.24821,6.24821,0,0,0,312.642,27.35468Z"/><path d="M332.46136,38.08906q0-8.48658,3.80761-13.51856a12.353,12.353,0,0,1,10.416-5.03173,11.119,11.119,0,0,1,8.75586,3.958V4.97968h9.72754V56.50556H356.4135l-.46972-3.85791a11.40819,11.40819,0,0,1-9.32617,4.52881,12.31884,12.31884,0,0,1-10.28125-5.04883Q332.46185,47.079,332.46136,38.08906Zm9.69433.72168q0,5.10717,1.77832,7.82812a5.78906,5.78906,0,0,0,5.166,2.7212,6.4876,6.4876,0,0,0,6.34082-3.79639V31.218a6.39539,6.39539,0,0,0-6.27442-3.79639Q342.1557,27.42158,342.15569,38.81074Z"/></g></g></g></svg>